<svg width="221" height="271" viewBox="0 0 221 271" fill="none" xmlns="http://www.w3.org/2000/svg">
<path d="M215.603 268.282C215.549 269.662 216.623 270.824 218.003 270.879C219.382 270.933 220.545 269.859 220.599 268.48L215.603 268.282ZM133.801 122.484L133.181 124.906L133.801 122.484ZM90.3438 189.147L88.5843 190.923L90.3438 189.147ZM153.507 184.949L155.683 186.181L153.507 184.949ZM1.22049 13.9732C0.102682 14.7837 -0.146457 16.3469 0.66402 17.4647L13.8715 35.6804C14.682 36.7982 16.2452 37.0473 17.363 36.2369C18.4808 35.4264 18.7299 33.8632 17.9194 32.7454L6.17946 16.5537L22.3712 4.81367C23.489 4.00319 23.7381 2.44001 22.9277 1.3222C22.1172 0.204393 20.554 -0.0447468 19.4362 0.765731L1.22049 13.9732ZM5.27528 18.9605C6.63592 19.1951 7.92911 18.2822 8.16371 16.9216C8.39831 15.561 7.48548 14.2678 6.12484 14.0332L5.27528 18.9605ZM18.0756 16.4107C16.7289 16.1062 15.3903 16.9509 15.0857 18.2976C14.7811 19.6443 15.6259 20.983 16.9726 21.2876L18.0756 16.4107ZM22.7664 22.6795C24.1045 23.02 25.4653 22.2113 25.8058 20.8733C26.1463 19.5352 25.3377 18.1744 23.9996 17.8339L22.7664 22.6795ZM35.7233 21.163C34.4061 20.749 33.0027 21.4811 32.5887 22.7983C32.1746 24.1155 32.9068 25.5189 34.224 25.9329L35.7233 21.163ZM39.8954 27.8048C41.2002 28.2564 42.624 27.5647 43.0755 26.2599C43.527 24.9551 42.8353 23.5313 41.5306 23.0798L39.8954 27.8048ZM52.9417 27.4057C51.6656 26.8784 50.2037 27.4853 49.6763 28.7613C49.149 30.0374 49.7559 31.4993 51.0319 32.0267L52.9417 27.4057ZM56.4733 34.3713C57.733 34.9367 59.2124 34.3739 59.7778 33.1143C60.3432 31.8546 59.7804 30.3751 58.5207 29.8098L56.4733 34.3713ZM69.5164 35.1566C68.294 34.5146 66.7827 34.9851 66.1407 36.2075C65.4987 37.4299 65.9692 38.9412 67.1915 39.5832L69.5164 35.1566ZM72.4113 42.43C73.6129 43.11 75.1383 42.6873 75.8184 41.4857C76.4985 40.2841 76.0757 38.7586 74.8741 38.0786L72.4113 42.43ZM85.2987 44.4252C84.143 43.6697 82.5937 43.9942 81.8382 45.1499C81.0828 46.3056 81.4072 47.8549 82.5629 48.6104L85.2987 44.4252ZM87.5038 51.9561C88.6343 52.7488 90.1933 52.4749 90.986 51.3445C91.7788 50.214 91.5049 48.6549 90.3745 47.8622L87.5038 51.9561ZM100.129 55.1902C99.0527 54.325 97.479 54.4958 96.6138 55.5718C95.7486 56.6478 95.9194 58.2215 96.9954 59.0867L100.129 55.1902ZM101.582 62.9029C102.629 63.8036 104.207 63.6854 105.108 62.6389C106.009 61.5924 105.89 60.0139 104.844 59.1132L101.582 62.9029ZM113.821 67.3798C112.838 66.4108 111.255 66.4227 110.286 67.4063C109.317 68.39 109.329 69.9728 110.313 70.9418L113.821 67.3798ZM114.489 75.1984C115.439 76.2004 117.021 76.2425 118.023 75.2925C119.025 74.3426 119.067 72.7602 118.117 71.7583L114.489 75.1984ZM126.21 80.9024C125.331 79.8375 123.755 79.6866 122.69 80.5654C121.625 81.4442 121.474 83.0199 122.353 84.0848L126.21 80.9024ZM126.062 88.7425C126.903 89.8376 128.472 90.0436 129.567 89.2026C130.662 88.3617 130.868 86.7922 130.027 85.6972L126.062 88.7425ZM137.132 95.6617C136.371 94.5095 134.82 94.1921 133.668 94.9529C132.516 95.7136 132.199 97.2644 132.959 98.4166L137.132 95.6617ZM136.131 103.416C136.849 104.595 138.388 104.969 139.567 104.25C140.746 103.532 141.12 101.994 140.401 100.815L136.131 103.416ZM146.385 111.526C145.759 110.296 144.253 109.806 143.023 110.433C141.793 111.06 141.304 112.566 141.93 113.796L146.385 111.526ZM144.519 119.133C145.096 120.388 146.581 120.936 147.835 120.358C149.089 119.781 149.638 118.296 149.06 117.042L144.519 119.133ZM153.719 128.375C153.25 127.077 151.816 126.405 150.518 126.875C149.22 127.345 148.548 128.778 149.018 130.076L153.719 128.375ZM150.9 135.672C151.31 136.991 152.711 137.728 154.029 137.318C155.348 136.908 156.084 135.507 155.675 134.189L150.9 135.672ZM158.734 146.115C158.463 144.761 157.145 143.884 155.791 144.156C154.438 144.427 153.56 145.745 153.832 147.099L158.734 146.115ZM154.818 152.892C155.008 154.26 156.27 155.214 157.638 155.024C159.006 154.835 159.96 153.572 159.771 152.205L154.818 152.892ZM160.604 164.618C160.62 163.238 159.514 162.105 158.133 162.089C156.753 162.073 155.62 163.179 155.604 164.559L160.604 164.618ZM155.259 170.343C155.106 171.715 156.095 172.952 157.467 173.105C158.839 173.258 160.076 172.269 160.229 170.897L155.259 170.343ZM157.131 183.257C157.679 181.99 157.095 180.518 155.827 179.971C154.559 179.424 153.088 180.008 152.541 181.276L157.131 183.257ZM149.799 186.217C149.035 187.367 149.349 188.919 150.499 189.682C151.65 190.446 153.201 190.132 153.965 188.981L149.799 186.217ZM145.072 198.684C146.16 197.834 146.352 196.262 145.502 195.175C144.651 194.087 143.08 193.894 141.992 194.745L145.072 198.684ZM137.165 197.87C135.942 198.512 135.472 200.024 136.115 201.246C136.757 202.468 138.269 202.938 139.491 202.296L137.165 197.87ZM126.82 206.204C128.191 206.045 129.174 204.804 129.016 203.433C128.857 202.061 127.616 201.078 126.245 201.237L126.82 206.204ZM120.486 201.389C119.108 201.305 117.923 202.354 117.839 203.732C117.756 205.111 118.805 206.296 120.183 206.379L120.486 201.389ZM107.361 203.494C108.647 203.997 110.097 203.362 110.6 202.076C111.103 200.791 110.469 199.34 109.183 198.837L107.361 203.494ZM103.876 196.332C102.668 195.662 101.147 196.098 100.477 197.305C99.8069 198.512 100.243 200.034 101.45 200.704L103.876 196.332ZM90.9317 193.139C91.9587 194.062 93.5394 193.978 94.4622 192.951C95.3851 191.924 95.3007 190.343 94.2737 189.42L90.9317 193.139ZM90.1958 185.391C89.2615 184.375 87.68 184.308 86.6634 185.242C85.6468 186.176 85.5801 187.758 86.5143 188.774L90.1958 185.391ZM79.3386 179.277C80.0588 180.455 81.5976 180.826 82.7756 180.106C83.9536 179.386 84.3248 177.847 83.6046 176.669L79.3386 179.277ZM81.001 171.875C80.4062 170.629 78.9139 170.101 77.6679 170.696C76.4219 171.291 75.894 172.783 76.4889 174.029L81.001 171.875ZM72.5535 162.715C72.8535 164.063 74.1892 164.912 75.537 164.612C76.8847 164.312 77.734 162.976 77.434 161.628L72.5535 162.715ZM76.5946 156.303C76.4685 154.928 75.2516 153.915 73.8766 154.041C72.5017 154.168 71.4894 155.384 71.6155 156.759L76.5946 156.303ZM72.2534 144.638C71.97 145.989 72.8356 147.314 74.187 147.598C75.5383 147.881 76.8635 147.016 77.1469 145.664L72.2534 144.638ZM78.6672 140.614C79.1807 139.332 78.5579 137.877 77.2763 137.363C75.9946 136.85 74.5393 137.472 74.0258 138.754L78.6672 140.614ZM80.6807 128.393C79.7248 129.39 79.7575 130.972 80.7538 131.928C81.7501 132.884 83.3327 132.851 84.2886 131.855L80.6807 128.393ZM88.2628 128.438C89.3895 127.64 89.6557 126.08 88.8576 124.953C88.0594 123.826 86.4991 123.56 85.3724 124.358L88.2628 128.438ZM96.346 119.086C95.0242 119.485 94.2762 120.88 94.6752 122.202C95.0743 123.524 96.4693 124.272 97.7911 123.873L96.346 119.086ZM103.047 122.656C104.409 122.429 105.328 121.14 105.101 119.778C104.873 118.417 103.585 117.497 102.223 117.725L103.047 122.656ZM114.096 116.987C112.716 116.945 111.563 118.03 111.521 119.41C111.479 120.79 112.564 121.943 113.944 121.985L114.096 116.987ZM119.451 122.367C120.824 122.513 122.055 121.518 122.201 120.145C122.347 118.773 121.352 117.541 119.979 117.395L119.451 122.367ZM131.534 119.362C130.188 119.053 128.847 119.894 128.539 121.24C128.23 122.586 129.071 123.927 130.417 124.235L131.534 119.362ZM135.875 125.68C137.19 126.1 138.597 125.374 139.016 124.059C139.436 122.744 138.71 121.337 137.395 120.917L135.875 125.68ZM148.663 125.885C147.46 125.206 145.935 125.631 145.257 126.833C144.578 128.036 145.003 129.56 146.205 130.239L148.663 125.885ZM151.037 133.249C152.178 134.027 153.733 133.732 154.511 132.592C155.289 131.451 154.995 129.895 153.854 129.118L151.037 133.249ZM163.37 136.666C162.347 135.738 160.766 135.815 159.839 136.838C158.911 137.861 158.988 139.442 160.01 140.369L163.37 136.666ZM164.166 144.365C165.134 145.35 166.717 145.363 167.701 144.394C168.686 143.426 168.699 141.843 167.73 140.859L164.166 144.365ZM175.748 149.856C174.878 148.785 173.303 148.621 172.232 149.492C171.16 150.362 170.997 151.937 171.867 153.009L175.748 149.856ZM175.436 157.592C176.263 158.698 177.829 158.924 178.935 158.098C180.041 157.271 180.268 155.704 179.441 154.599L175.436 157.592ZM186.27 164.458C185.523 163.297 183.976 162.961 182.815 163.708C181.654 164.455 181.318 166.002 182.065 167.164L186.27 164.458ZM185.143 172.118C185.854 173.302 187.39 173.685 188.574 172.974C189.757 172.264 190.141 170.728 189.43 169.544L185.143 172.118ZM195.29 179.969C194.647 178.747 193.135 178.278 191.913 178.921C190.692 179.565 190.223 181.077 190.866 182.298L195.29 179.969ZM193.521 187.505C194.132 188.743 195.632 189.251 196.869 188.639C198.107 188.028 198.615 186.529 198.004 185.291L193.521 187.505ZM203.025 196.121C202.474 194.854 201.002 194.274 199.735 194.824C198.469 195.375 197.889 196.847 198.439 198.114L203.025 196.121ZM200.707 203.507C201.227 204.786 202.686 205.401 203.965 204.88C205.244 204.36 205.859 202.901 205.338 201.622L200.707 203.507ZM209.577 212.781C209.117 211.479 207.689 210.797 206.387 211.257C205.085 211.716 204.402 213.145 204.862 214.446L209.577 212.781ZM206.745 219.985C207.174 221.298 208.585 222.014 209.898 221.586C211.21 221.157 211.926 219.746 211.498 218.433L206.745 219.985ZM214.921 229.874C214.56 228.542 213.187 227.755 211.854 228.116C210.521 228.478 209.734 229.851 210.096 231.184L214.921 229.874ZM211.546 236.835C211.87 238.177 213.221 239.002 214.563 238.678C215.905 238.354 216.73 237.003 216.406 235.661L211.546 236.835ZM218.852 247.404C218.617 246.043 217.324 245.131 215.963 245.365C214.603 245.6 213.69 246.893 213.925 248.254L218.852 247.404ZM214.797 254.004C214.974 255.373 216.228 256.339 217.598 256.161C218.967 255.984 219.933 254.73 219.755 253.361L214.797 254.004ZM220.647 265.437C220.638 264.056 219.511 262.944 218.131 262.953C216.75 262.963 215.638 264.089 215.647 265.47L220.647 265.437ZM2.29451 18.466C3.29348 18.6252 4.28707 18.7901 5.27528 18.9605L6.12484 14.0332C5.11574 13.8592 4.10129 13.6909 3.08147 13.5284L2.29451 18.466ZM16.9726 21.2876C18.9265 21.7295 20.8578 22.1937 22.7664 22.6795L23.9996 17.8339C22.0476 17.3371 20.073 16.8625 18.0756 16.4107L16.9726 21.2876ZM34.224 25.9329C36.1392 26.5349 38.0296 27.1591 39.8954 27.8048L41.5306 23.0798C39.6196 22.4185 37.6839 21.7792 35.7233 21.163L34.224 25.9329ZM51.0319 32.0267C52.872 32.7871 54.6858 33.569 56.4733 34.3713L58.5207 29.8098C56.6876 28.987 54.8279 28.1853 52.9417 27.4057L51.0319 32.0267ZM67.1915 39.5832C68.96 40.512 70.6999 41.4613 72.4113 42.43L74.8741 38.0786C73.1172 37.0842 71.3313 36.1098 69.5164 35.1566L67.1915 39.5832ZM82.5629 48.6104C84.2408 49.7071 85.8877 50.8228 87.5038 51.9561L90.3745 47.8622C88.714 46.6979 87.0221 45.5518 85.2987 44.4252L82.5629 48.6104ZM96.9954 59.0867C98.5575 60.3428 100.086 61.6154 101.582 62.9029L104.844 59.1132C103.306 57.7896 101.734 56.4814 100.129 55.1902L96.9954 59.0867ZM110.313 70.9418C111.74 72.3481 113.132 73.7676 114.489 75.1984L118.117 71.7583C116.722 70.2863 115.29 68.8262 113.821 67.3798L110.313 70.9418ZM122.353 84.0848C123.628 85.6294 124.864 87.1826 126.062 88.7425L130.027 85.6972C128.794 84.0911 127.521 82.4921 126.21 80.9024L122.353 84.0848ZM132.959 98.4166C134.058 100.081 135.115 101.748 136.131 103.416L140.401 100.815C139.354 99.0952 138.264 97.3767 137.132 95.6617L132.959 98.4166ZM141.93 113.796C142.84 115.581 143.703 117.361 144.519 119.133L149.06 117.042C148.216 115.21 147.325 113.37 146.385 111.526L141.93 113.796ZM149.018 130.076C149.699 131.96 150.326 133.827 150.9 135.672L155.675 134.189C155.078 132.269 154.426 130.33 153.719 128.375L149.018 130.076ZM153.832 147.099C154.228 149.07 154.556 151.003 154.818 152.892L159.771 152.205C159.494 150.213 159.149 148.181 158.734 146.115L153.832 147.099ZM155.604 164.559C155.58 166.575 155.464 168.506 155.259 170.343L160.229 170.897C160.453 168.884 160.578 166.787 160.604 164.618L155.604 164.559ZM152.541 181.276C152.168 182.139 151.765 182.953 151.332 183.717L155.683 186.181C156.209 185.251 156.692 184.275 157.131 183.257L152.541 181.276ZM151.332 183.717C150.842 184.582 150.331 185.415 149.799 186.217L153.965 188.981C154.563 188.08 155.136 187.146 155.683 186.181L151.332 183.717ZM141.992 194.745C140.455 195.946 138.841 196.989 137.165 197.87L139.491 202.296C141.436 201.273 143.302 200.068 145.072 198.684L141.992 194.745ZM126.245 201.237C124.361 201.455 122.437 201.507 120.486 201.389L120.183 206.379C122.422 206.515 124.64 206.456 126.82 206.204L126.245 201.237ZM109.183 198.837C107.413 198.145 105.64 197.311 103.876 196.332L101.45 200.704C103.404 201.788 105.378 202.718 107.361 203.494L109.183 198.837ZM94.2737 189.42C93.545 188.766 92.8212 188.083 92.1032 187.371L88.5843 190.923C89.359 191.691 90.1418 192.43 90.9317 193.139L94.2737 189.42ZM92.1032 187.371C91.4474 186.722 90.8115 186.061 90.1958 185.391L86.5143 188.774C87.1829 189.502 87.8729 190.219 88.5843 190.923L92.1032 187.371ZM83.6046 176.669C82.6408 175.092 81.7726 173.491 81.001 171.875L76.4889 174.029C77.3354 175.802 78.2859 177.555 79.3386 179.277L83.6046 176.669ZM77.434 161.628C77.0358 159.84 76.7559 158.06 76.5946 156.303L71.6155 156.759C71.7968 158.735 72.1105 160.725 72.5535 162.715L77.434 161.628ZM77.1469 145.664C77.5133 143.917 78.0201 142.229 78.6672 140.614L74.0258 138.754C73.2664 140.65 72.6771 142.618 72.2534 144.638L77.1469 145.664ZM84.2886 131.855C85.4721 130.622 86.7954 129.478 88.2628 128.438L85.3724 124.358C83.649 125.579 82.0851 126.93 80.6807 128.393L84.2886 131.855ZM97.7911 123.873C99.437 123.376 101.188 122.967 103.047 122.656L102.223 117.725C100.164 118.069 98.2049 118.525 96.346 119.086L97.7911 123.873ZM113.944 121.985C115.711 122.039 117.546 122.165 119.451 122.367L119.979 117.395C117.956 117.18 115.995 117.045 114.096 116.987L113.944 121.985ZM130.417 124.235C131.326 124.444 132.247 124.667 133.181 124.906L134.421 120.062C133.447 119.813 132.485 119.579 131.534 119.362L130.417 124.235ZM133.181 124.906C134.083 125.137 134.981 125.395 135.875 125.68L137.395 120.917C136.41 120.603 135.419 120.318 134.421 120.062L133.181 124.906ZM146.205 130.239C147.833 131.158 149.444 132.163 151.037 133.249L153.854 129.118C152.151 127.957 150.42 126.877 148.663 125.885L146.205 130.239ZM160.01 140.369C161.415 141.643 162.8 142.977 164.166 144.365L167.73 140.859C166.301 139.406 164.848 138.007 163.37 136.666L160.01 140.369ZM171.867 153.009C173.076 154.497 174.266 156.026 175.436 157.592L179.441 154.599C178.233 152.982 177.002 151.4 175.748 149.856L171.867 153.009ZM182.065 167.164C183.111 168.79 184.138 170.443 185.143 172.118L189.43 169.544C188.399 167.826 187.345 166.13 186.27 164.458L182.065 167.164ZM190.866 182.298C191.773 184.021 192.658 185.757 193.521 187.505L198.004 185.291C197.122 183.505 196.217 181.73 195.29 179.969L190.866 182.298ZM198.439 198.114C199.219 199.909 199.975 201.707 200.707 203.507L205.338 201.622C204.592 199.787 203.82 197.952 203.025 196.121L198.439 198.114ZM204.862 214.446C205.518 216.302 206.145 218.15 206.745 219.985L211.498 218.433C210.886 216.559 210.245 214.674 209.577 212.781L204.862 214.446ZM210.096 231.184C210.614 233.093 211.098 234.979 211.546 236.835L216.406 235.661C215.947 233.758 215.452 231.828 214.921 229.874L210.096 231.184ZM213.925 248.254C214.265 250.228 214.556 252.147 214.797 254.004L219.755 253.361C219.505 251.431 219.203 249.442 218.852 247.404L213.925 248.254ZM215.647 265.47C215.654 266.443 215.639 267.381 215.603 268.282L220.599 268.48C220.638 267.496 220.654 266.481 220.647 265.437L215.647 265.47Z" fill="white"/>
</svg>
